<mxfile host="app.diagrams.net" modified="2024-06-07T00:45:35.954Z" agent="Mozilla/5.0 (Windows NT 10.0; Win64; x64) AppleWebKit/537.36 (KHTML, like Gecko) Chrome/125.0.0.0 Safari/537.36" etag="9Rr4acxvYm38r1TnljVq" version="24.4.10" type="device">
  <diagram name="Page-1" id="2YBvvXClWsGukQMizWep">
    <mxGraphModel dx="1290" dy="522" grid="1" gridSize="10" guides="1" tooltips="1" connect="1" arrows="1" fold="1" page="1" pageScale="1" pageWidth="850" pageHeight="1100" math="0" shadow="0">
      <root>
        <mxCell id="0" />
        <mxCell id="1" parent="0" />
        <mxCell id="6emwzG1pVkhcaylJA491-1" value="maq:Maquina" style="shape=umlLifeline;perimeter=lifelinePerimeter;whiteSpace=wrap;html=1;container=1;dropTarget=0;collapsible=0;recursiveResize=0;outlineConnect=0;portConstraint=eastwest;newEdgeStyle={&quot;curved&quot;:0,&quot;rounded&quot;:0};" vertex="1" parent="1">
          <mxGeometry x="120" y="50" width="100" height="220" as="geometry" />
        </mxCell>
        <mxCell id="6emwzG1pVkhcaylJA491-2" value="moldeAv:MoldeAvion" style="shape=umlLifeline;perimeter=lifelinePerimeter;whiteSpace=wrap;html=1;container=1;dropTarget=0;collapsible=0;recursiveResize=0;outlineConnect=0;portConstraint=eastwest;newEdgeStyle={&quot;curved&quot;:0,&quot;rounded&quot;:0};" vertex="1" parent="1">
          <mxGeometry x="250" y="50" width="130" height="220" as="geometry" />
        </mxCell>
        <mxCell id="6emwzG1pVkhcaylJA491-5" value="" style="html=1;points=[[0,0,0,0,5],[0,1,0,0,-5],[1,0,0,0,5],[1,1,0,0,-5]];perimeter=orthogonalPerimeter;outlineConnect=0;targetShapes=umlLifeline;portConstraint=eastwest;newEdgeStyle={&quot;curved&quot;:0,&quot;rounded&quot;:0};" vertex="1" parent="6emwzG1pVkhcaylJA491-2">
          <mxGeometry x="60" y="80" width="10" height="100" as="geometry" />
        </mxCell>
        <mxCell id="6emwzG1pVkhcaylJA491-3" value="avion:Avion" style="shape=umlLifeline;perimeter=lifelinePerimeter;whiteSpace=wrap;html=1;container=1;dropTarget=0;collapsible=0;recursiveResize=0;outlineConnect=0;portConstraint=eastwest;newEdgeStyle={&quot;curved&quot;:0,&quot;rounded&quot;:0};" vertex="1" parent="1">
          <mxGeometry x="410" y="50" width="100" height="220" as="geometry" />
        </mxCell>
        <mxCell id="6emwzG1pVkhcaylJA491-7" value="hacerFuncionar()" style="html=1;verticalAlign=bottom;endArrow=block;curved=0;rounded=0;" edge="1" parent="1">
          <mxGeometry width="80" relative="1" as="geometry">
            <mxPoint x="175" y="134" as="sourcePoint" />
            <mxPoint x="310" y="134" as="targetPoint" />
          </mxGeometry>
        </mxCell>
        <mxCell id="6emwzG1pVkhcaylJA491-8" value="createInstance()" style="html=1;verticalAlign=bottom;endArrow=block;curved=0;rounded=0;" edge="1" parent="1">
          <mxGeometry width="80" relative="1" as="geometry">
            <mxPoint x="320" y="151" as="sourcePoint" />
            <mxPoint x="455" y="151" as="targetPoint" />
          </mxGeometry>
        </mxCell>
        <mxCell id="6emwzG1pVkhcaylJA491-11" value="" style="html=1;verticalAlign=bottom;endArrow=block;curved=0;rounded=0;" edge="1" parent="1" target="6emwzG1pVkhcaylJA491-4">
          <mxGeometry width="80" relative="1" as="geometry">
            <mxPoint x="175" y="143" as="sourcePoint" />
            <mxPoint x="310" y="143" as="targetPoint" />
          </mxGeometry>
        </mxCell>
        <mxCell id="6emwzG1pVkhcaylJA491-4" value="" style="html=1;points=[[0,0,0,0,5],[0,1,0,0,-5],[1,0,0,0,5],[1,1,0,0,-5]];perimeter=orthogonalPerimeter;outlineConnect=0;targetShapes=umlLifeline;portConstraint=eastwest;newEdgeStyle={&quot;curved&quot;:0,&quot;rounded&quot;:0};" vertex="1" parent="1">
          <mxGeometry x="165" y="120" width="10" height="120" as="geometry" />
        </mxCell>
        <mxCell id="6emwzG1pVkhcaylJA491-6" value="" style="html=1;points=[[0,0,0,0,5],[0,1,0,0,-5],[1,0,0,0,5],[1,1,0,0,-5]];perimeter=orthogonalPerimeter;outlineConnect=0;targetShapes=umlLifeline;portConstraint=eastwest;newEdgeStyle={&quot;curved&quot;:0,&quot;rounded&quot;:0};" vertex="1" parent="1">
          <mxGeometry x="455" y="145" width="10" height="55" as="geometry" />
        </mxCell>
        <mxCell id="6emwzG1pVkhcaylJA491-12" value="return Avion" style="html=1;verticalAlign=bottom;endArrow=open;dashed=1;endSize=8;curved=0;rounded=0;" edge="1" parent="1">
          <mxGeometry relative="1" as="geometry">
            <mxPoint x="455" y="198" as="sourcePoint" />
            <mxPoint x="320" y="198" as="targetPoint" />
          </mxGeometry>
        </mxCell>
        <mxCell id="6emwzG1pVkhcaylJA491-13" value="return Avion" style="html=1;verticalAlign=bottom;endArrow=open;dashed=1;endSize=8;curved=0;rounded=0;" edge="1" parent="1">
          <mxGeometry relative="1" as="geometry">
            <mxPoint x="310" y="226" as="sourcePoint" />
            <mxPoint x="175" y="226" as="targetPoint" />
          </mxGeometry>
        </mxCell>
        <mxCell id="6emwzG1pVkhcaylJA491-14" value="Diagrama de secuencias de la fabricaciÃ³n de un avioncito de juguete." style="text;html=1;align=center;verticalAlign=middle;whiteSpace=wrap;rounded=0;" vertex="1" parent="1">
          <mxGeometry x="110" y="10" width="410" height="30" as="geometry" />
        </mxCell>
      </root>
    </mxGraphModel>
  </diagram>
</mxfile>
